<svg version="1.1" id="Layer_1" xmlns="http://www.w3.org/2000/svg" xmlns:xlink="http://www.w3.org/1999/xlink" x="0px" y="0px"
	 width="100%" viewBox="0 0 304 304" enable-background="new 0 0 304 304" xml:space="preserve">
<path fill="none" opacity="0.000000" stroke="none" 
	d="
M173.000000,305.000000 
	C115.333344,305.000000 58.166687,305.000000 1.000023,305.000000 
	C1.000015,203.666702 1.000015,102.333389 1.000008,1.000064 
	C102.333282,1.000043 203.666565,1.000043 304.999878,1.000021 
	C304.999939,102.333275 304.999939,203.666550 304.999969,304.999908 
	C261.166656,305.000000 217.333328,305.000000 173.000000,305.000000 
M171.216324,267.713745 
	C185.817673,251.324646 201.463257,235.736954 214.791397,218.370682 
	C238.620178,187.322281 255.756897,152.881546 259.354279,113.148132 
	C260.395020,101.652962 259.514008,89.983795 259.514008,78.412209 
	C210.845428,75.739182 178.346100,45.017952 145.468063,14.569653 
	C140.320480,19.463923 135.327972,24.574474 129.959732,29.253983 
	C101.579636,53.992989 72.213150,76.847763 31.954367,78.232895 
	C31.765429,79.681793 31.529419,80.974976 31.436663,82.278358 
	C28.999517,116.524773 36.029797,148.788803 51.799801,179.208649 
	C74.015694,222.062424 105.610779,257.047241 142.583633,287.549377 
	C145.092087,289.618805 146.708984,289.326477 148.944946,287.318848 
	C156.128708,280.868713 163.459518,274.582336 171.216324,267.713745 
z"/>
<path fill="#070705" opacity="1.000000" stroke="none" 
	d="
M170.974960,267.973267 
	C163.459518,274.582336 156.128708,280.868713 148.944946,287.318848 
	C146.708984,289.326477 145.092087,289.618805 142.583633,287.549377 
	C105.610779,257.047241 74.015694,222.062424 51.799801,179.208649 
	C36.029797,148.788803 28.999517,116.524773 31.436663,82.278358 
	C31.529419,80.974976 31.765429,79.681793 31.954367,78.232895 
	C72.213150,76.847763 101.579636,53.992989 129.959732,29.253983 
	C135.327972,24.574474 140.320480,19.463923 145.468063,14.569653 
	C178.346100,45.017952 210.845428,75.739182 259.514008,78.412209 
	C259.514008,89.983795 260.395020,101.652962 259.354279,113.148132 
	C255.756897,152.881546 238.620178,187.322281 214.791397,218.370682 
	C201.463257,235.736954 185.817673,251.324646 170.974960,267.973267 
M161.146545,53.133049 
	C155.924057,48.195911 150.701553,43.258770 145.219604,38.076359 
	C139.809280,43.493698 134.690353,48.619255 128.967117,54.000423 
	C125.384216,56.978851 121.898521,60.084305 118.201271,62.913284 
	C103.724640,73.990219 88.744293,84.242767 70.607056,88.402138 
	C64.363686,89.833923 57.924026,90.409775 51.561058,91.378616 
	C48.657879,119.525208 54.429688,145.795517 66.644966,170.884705 
	C81.444908,201.282578 103.206299,226.363968 126.856560,250.000656 
	C132.815414,255.956085 139.078705,261.606903 145.212570,267.407623 
	C146.442947,266.472626 147.140320,266.019409 147.749496,265.468628 
	C167.309326,247.783829 185.616165,228.900452 201.478775,207.801819 
	C218.655136,184.955826 232.036392,160.225784 237.627869,131.814133 
	C240.279617,118.339920 240.618271,104.816887 239.341827,90.858765 
	C222.996078,90.478882 207.922897,86.389526 194.567017,77.695358 
	C183.163315,70.271980 172.464569,61.765686 161.146545,53.133049 
z"/>
<path fill="#FBC802" opacity="1.000000" stroke="none" 
	d="
M161.453979,53.738411 
	C172.464569,61.765686 183.163315,70.271980 194.567017,77.695358 
	C207.922897,86.389526 222.996078,90.478882 239.341827,90.858765 
	C240.618271,104.816887 240.279617,118.339920 237.627869,131.814133 
	C232.036392,160.225784 218.655136,184.955826 201.478775,207.801819 
	C185.616165,228.900452 167.309326,247.783829 147.749496,265.468628 
	C147.140320,266.019409 146.442947,266.472626 145.212570,267.407623 
	C139.078705,261.606903 132.815414,255.956085 126.856560,250.000656 
	C103.206299,226.363968 81.444908,201.282578 66.644966,170.884705 
	C54.429688,145.795517 48.657879,119.525208 51.561058,91.378616 
	C57.924026,90.409775 64.363686,89.833923 70.607056,88.402138 
	C88.744293,84.242767 103.724640,73.990219 118.201271,62.913284 
	C121.898521,60.084305 125.384216,56.978851 129.569122,54.035278 
	C130.462585,54.410439 130.754028,54.750744 130.879395,55.378220 
	C126.635674,59.294151 122.558052,62.922913 117.385300,67.526260 
	C136.485733,64.176437 154.185135,63.658245 172.827698,67.017052 
	C167.948105,62.524410 163.937607,58.831959 160.109161,54.836304 
	C160.678802,54.268208 161.066391,54.003311 161.453979,53.738411 
M80.607101,162.065201 
	C88.508598,146.860413 96.340851,131.618851 104.377174,116.485672 
	C105.777847,113.848083 105.624039,112.184944 103.583961,110.003006 
	C97.789558,103.805702 92.178253,97.432747 86.631645,91.010803 
	C84.847382,88.944954 83.282860,88.755470 80.609909,89.482742 
	C73.741821,91.351463 66.752663,92.969948 59.708141,93.915672 
	C56.031391,94.409271 55.117107,95.591049 54.961102,99.105263 
	C54.137932,117.648384 56.758533,135.644897 63.302097,152.986542 
	C66.115280,160.441986 69.645195,167.627014 73.292702,175.945724 
	C76.071609,170.639038 78.148788,166.672394 80.607101,162.065201 
M134.287781,250.212540 
	C137.197372,252.703705 139.990692,255.355362 143.082413,257.595123 
	C144.103485,258.334869 146.459366,258.704681 147.243835,258.065002 
	C153.386627,253.056076 159.295532,247.760300 165.548019,242.316696 
	C150.500977,225.187195 135.947525,208.619583 120.783951,191.357437 
	C116.369225,201.929428 112.181198,211.659424 108.349709,221.527832 
	C107.891754,222.707352 108.948288,225.056625 110.025009,226.157166 
	C117.824821,234.129578 125.810265,241.920380 134.287781,250.212540 
M140.463959,138.934052 
	C139.587723,141.091858 138.502426,143.195007 137.918411,145.429199 
	C137.598724,146.652130 137.664948,148.437592 138.359192,149.376099 
	C140.331131,152.041931 142.604019,154.519318 145.004517,156.813385 
	C145.737091,157.513504 147.538696,157.947433 148.390762,157.540405 
	C158.797165,152.569199 168.999435,147.171829 176.177078,137.743515 
	C182.615036,129.286804 182.082733,120.773628 174.035416,113.771111 
	C168.606522,109.047081 162.176926,105.473114 155.496826,100.907539 
	C150.277817,114.149658 145.531433,126.192604 140.463959,138.934052 
M194.657410,210.073654 
	C205.942780,195.586380 216.037659,180.391785 222.892456,164.328857 
	C205.638611,171.352570 188.223633,178.441879 170.429703,185.685440 
	C177.694138,193.665665 185.470642,202.212875 193.275757,210.733856 
	C193.376938,210.844330 193.842224,210.621292 194.657410,210.073654 
M229.150894,99.355301 
	C231.239563,101.717667 233.328232,104.080032 235.848495,106.930534 
	C236.622910,93.650406 235.272034,92.229561 224.173218,94.038971 
	C225.761093,95.723656 227.221405,97.273026 229.150894,99.355301 
z"/>
<path fill="#DCAF03" opacity="1.000000" stroke="none" 
	d="
M131.045486,55.091057 
	C130.754028,54.750744 130.462585,54.410439 129.871277,53.907471 
	C134.690353,48.619255 139.809280,43.493698 145.219604,38.076359 
	C150.701553,43.258770 155.924057,48.195911 161.300262,53.435730 
	C161.066391,54.003311 160.678802,54.268208 159.799210,54.703003 
	C154.721527,50.430046 150.135849,45.987186 145.556473,41.550446 
	C140.460052,46.306057 135.752777,50.698559 131.045486,55.091057 
z"/>
<path fill="#35311E" opacity="1.000000" stroke="none" 
	d="
M80.416534,162.385468 
	C78.148788,166.672394 76.071609,170.639038 73.292702,175.945724 
	C69.645195,167.627014 66.115280,160.441986 63.302097,152.986542 
	C56.758533,135.644897 54.137932,117.648384 54.961102,99.105263 
	C55.117107,95.591049 56.031391,94.409271 59.708141,93.915672 
	C66.752663,92.969948 73.741821,91.351463 80.609909,89.482742 
	C83.282860,88.755470 84.847382,88.944954 86.631645,91.010803 
	C92.178253,97.432747 97.789558,103.805702 103.583961,110.003006 
	C105.624039,112.184944 105.777847,113.848083 104.377174,116.485672 
	C96.340851,131.618851 88.508598,146.860413 80.416534,162.385468 
z"/>
<path fill="#35321E" opacity="1.000000" stroke="none" 
	d="
M134.012360,249.990601 
	C125.810265,241.920380 117.824821,234.129578 110.025009,226.157166 
	C108.948288,225.056625 107.891754,222.707352 108.349709,221.527832 
	C112.181198,211.659424 116.369225,201.929428 120.783951,191.357437 
	C135.947525,208.619583 150.500977,225.187195 165.548019,242.316696 
	C159.295532,247.760300 153.386627,253.056076 147.243835,258.065002 
	C146.459366,258.704681 144.103485,258.334869 143.082413,257.595123 
	C139.990692,255.355362 137.197372,252.703705 134.012360,249.990601 
z"/>
<path fill="#36321D" opacity="1.000000" stroke="none" 
	d="
M140.624496,138.584808 
	C145.531433,126.192604 150.277817,114.149658 155.496826,100.907539 
	C162.176926,105.473114 168.606522,109.047081 174.035416,113.771111 
	C182.082733,120.773628 182.615036,129.286804 176.177078,137.743515 
	C168.999435,147.171829 158.797165,152.569199 148.390762,157.540405 
	C147.538696,157.947433 145.737091,157.513504 145.004517,156.813385 
	C142.604019,154.519318 140.331131,152.041931 138.359192,149.376099 
	C137.664948,148.437592 137.598724,146.652130 137.918411,145.429199 
	C138.502426,143.195007 139.587723,141.091858 140.624496,138.584808 
z"/>
<path fill="#38331D" opacity="1.000000" stroke="none" 
	d="
M194.397491,210.313782 
	C193.842224,210.621292 193.376938,210.844330 193.275757,210.733856 
	C185.470642,202.212875 177.694138,193.665665 170.429703,185.685440 
	C188.223633,178.441879 205.638611,171.352570 222.892456,164.328857 
	C216.037659,180.391785 205.942780,195.586380 194.397491,210.313782 
z"/>
<path fill="#3B361D" opacity="1.000000" stroke="none" 
	d="
M130.879395,55.378220 
	C135.752777,50.698559 140.460052,46.306057 145.556473,41.550446 
	C150.135849,45.987186 154.721527,50.430046 159.617157,55.006203 
	C163.937607,58.831959 167.948105,62.524410 172.827698,67.017052 
	C154.185135,63.658245 136.485733,64.176437 117.385300,67.526260 
	C122.558052,62.922913 126.635674,59.294151 130.879395,55.378220 
z"/>
<path fill="#463F1B" opacity="1.000000" stroke="none" 
	d="
M228.916306,99.088844 
	C227.221405,97.273026 225.761093,95.723656 224.173218,94.038971 
	C235.272034,92.229561 236.622910,93.650406 235.848495,106.930534 
	C233.328232,104.080032 231.239563,101.717667 228.916306,99.088844 
z"/>
</svg>